<?xml version="1.0" encoding="UTF-8"?><svg id="Capa_1" xmlns="http://www.w3.org/2000/svg" viewBox="0 0 337.26 82.25"><defs><style>.cls-1{fill:#4a4a49;}</style></defs><g><path class="cls-1" d="m44.78,31.25c1.64,0,2.99.43,4.02,1.28s1.55,1.96,1.55,3.34c0,.93-.26,1.74-.77,2.44s-1.28,1.24-2.29,1.64c.56.28,1.06.67,1.49,1.15s.97,1.3,1.61,2.45c1.07,1.99,1.86,3.36,2.38,4.11h-3.77c-.26-.36-.61-.94-1.05-1.73-.97-1.75-1.68-2.92-2.13-3.53-.45-.61-.88-1.04-1.3-1.29-.42-.26-.9-.38-1.44-.38h-1.23v6.93h-3.38v-16.41h6.3Zm-.76,7c.88,0,1.58-.21,2.08-.62s.76-.98.76-1.7-.25-1.31-.75-1.69c-.5-.37-1.22-.56-2.14-.56h-2.11v4.57h2.16Z"/><path class="cls-1" d="m67.81,31.25v2.48h-7.93v4.31h7.59v2.48h-7.59v4.66h8.11v2.48h-11.49v-16.41h11.31Z"/><path class="cls-1" d="m74.33,31.25l4.36,10.12,4.59-10.12h2.86l4.61,10.16,4.35-10.16h3.46l-7.2,16.62h-1.14l-5.51-12.17-5.54,12.17h-1.1l-7.22-16.62h3.5Z"/><path class="cls-1" d="m108.91,31.25l7.73,16.41h-3.57l-1.82-3.99h-7.78l-1.69,3.99h-3.55l7.22-16.41h3.46Zm-4.41,10.01h5.65l-2.96-6.49-2.7,6.49Z"/><path class="cls-1" d="m126.49,31.25c1.65,0,2.99.43,4.02,1.28,1.04.85,1.56,1.96,1.56,3.34,0,.93-.26,1.74-.77,2.44s-1.28,1.24-2.29,1.64c.56.28,1.06.67,1.49,1.15s.97,1.3,1.62,2.45c1.07,1.99,1.86,3.36,2.38,4.11h-3.77c-.26-.36-.61-.94-1.05-1.73-.97-1.75-1.68-2.92-2.13-3.53s-.89-1.04-1.3-1.29-.9-.38-1.44-.38h-1.23v6.93h-3.38v-16.41h6.3Zm-.76,7c.89,0,1.58-.21,2.09-.62.5-.41.76-.98.76-1.7s-.25-1.31-.75-1.69c-.5-.37-1.22-.56-2.14-.56h-2.11v4.57h2.15Z"/><path class="cls-1" d="m145.53,31.25c1.82,0,3.44.35,4.86,1.05s2.52,1.68,3.31,2.94c.78,1.26,1.18,2.68,1.18,4.25s-.4,3.03-1.19,4.27c-.79,1.24-1.91,2.2-3.36,2.88-1.46.68-3.12,1.02-5,1.02h-7.13v-16.41h7.33Zm-.35,13.93c1.87,0,3.37-.53,4.51-1.58,1.13-1.05,1.7-2.43,1.7-4.14s-.57-3.17-1.71-4.19c-1.14-1.02-2.67-1.54-4.6-1.54h-3.48v11.45h3.6Z"/><path class="cls-1" d="m171.65,31.25v16.41h-3.38v-16.41h3.38Z"/><path class="cls-1" d="m187.75,31.25v2.48h-7.29v4.24h7.29v2.5h-7.29v7.19h-3.38v-16.41h10.67Z"/><path class="cls-1" d="m211.64,31.25v2.48h-7.29v4.24h7.29v2.5h-7.29v7.19h-3.38v-16.41h10.67Z"/><path class="cls-1" d="m225.18,31.04c1.81,0,3.44.35,4.89,1.05,1.45.7,2.6,1.71,3.46,3.03s1.29,2.77,1.29,4.34-.42,2.96-1.26,4.27-1.99,2.33-3.46,3.05c-1.46.73-3.12,1.09-4.96,1.09s-3.46-.37-4.94-1.1-2.64-1.75-3.46-3.04c-.83-1.29-1.24-2.71-1.24-4.27s.41-2.92,1.24-4.24c.82-1.32,1.97-2.35,3.42-3.08s3.12-1.1,5.01-1.1Zm-6.18,8.42c0,1.09.26,2.07.79,2.94.53.87,1.26,1.54,2.2,2.02s2,.72,3.19.72c1.8,0,3.27-.53,4.43-1.59s1.74-2.42,1.74-4.09c0-1.09-.26-2.07-.78-2.94s-1.26-1.55-2.2-2.03-2.02-.72-3.2-.72-2.25.24-3.2.72-1.68,1.15-2.19,2.02c-.51.87-.76,1.85-.76,2.94Z"/><path class="cls-1" d="m242.75,31.25v9.55c0,.98.16,1.76.47,2.34.31.58.82,1.06,1.54,1.43.71.38,1.54.56,2.48.56,1.03,0,1.91-.18,2.64-.53s1.25-.84,1.59-1.46.5-1.46.5-2.55v-9.34h3.38v9.75c0,2.21-.7,3.9-2.12,5.09s-3.41,1.78-5.99,1.78c-1.62,0-3.03-.27-4.22-.81-1.19-.54-2.1-1.32-2.72-2.34-.63-1.02-.94-2.22-.94-3.6v-9.86h3.4Z"/><path class="cls-1" d="m263.54,31.25l10.4,11.45v-11.45h3.31v16.41h-2.91l-10.46-11.64v11.64h-3.31v-16.41h2.97Z"/><path class="cls-1" d="m289.94,31.25c1.82,0,3.44.35,4.86,1.05s2.52,1.68,3.31,2.94c.78,1.26,1.18,2.68,1.18,4.25s-.4,3.03-1.19,4.27c-.79,1.24-1.91,2.2-3.36,2.88-1.46.68-3.12,1.02-5,1.02h-7.13v-16.41h7.33Zm-.35,13.93c1.87,0,3.37-.53,4.51-1.58,1.13-1.05,1.7-2.43,1.7-4.14s-.57-3.17-1.71-4.19c-1.14-1.02-2.67-1.54-4.6-1.54h-3.48v11.45h3.6Z"/></g><path class="cls-1" d="m337.26,82.25H0V0h337.26v82.25ZM3.01,79.25h331.25V3.01H3.01v76.24Z"/></svg>