<?xml version="1.0" encoding="UTF-8"?><svg id="Capa_1" xmlns="http://www.w3.org/2000/svg" viewBox="0 0 44.94 53.51"><defs><style>.cls-1{fill:#010101;}</style></defs><path class="cls-1" d="m30.23,4.55c-.8,2.12-.98,4.25-.58,5.91.24.96.63,1.68,1.07,2.24-.17-.27-.32-.55-.44-.85-.47-1.14-.57-2.38-.27-3.42.64-2.23,2.1-3.22,3.12-3.65.41-.44,1.15-1.06,2.4-1.41,1.02-.32,2.48-.39,3.77.44,1.31.92,1.63,2.66,1.65,4.26.23,1.74,1.49,1.47,2.05,1.47.33-.04.46-.5.54-.81.77-3.09-.29-5-1.21-6.1-1.32-1.58-3.48-3.26-6.82-2.39-.31.08-1.38.47-1.67.6-.57.26-1.11.57-1.59.94-.98.72-1.63,1.69-2.01,2.77Z"/><path class="cls-1" d="m37.63,5.82c.64,0,1.26.03,1.8.15,0-.04,0-.08,0-.12.1-.62-.05-1.09-.47-1.45-.03-.02-.06-.04-.09-.07-1.34.11-2.51.62-3.52,1.33.61.19,1.38.31,2.28.15Z"/><path class="cls-1" d="m37.84,7.02s0,.08.02.12c.18.08.34.17.48.28.17.14.27.28.34.41.15,0,.32-.02.5-.09.11-.04.26-.06.43-.06.19,0,.44.03.69.1-.04-1.41-.37-2.87-1.32-3.56-1.09-.77-2.4-.81-3.4-.57-1.06.21-1.79.66-2.26,1.03.05-.02.11-.04.16-.06.52-.18,1.08-.27,1.61-.27.85,0,1.6.24,2.11.67.55.47.77,1.13.64,1.92,0,.03,0,.05,0,.08Z"/><path class="cls-1" d="m28.66,13.55c1.42,1.14,3.1,1.66,4.44,1.98,1.38.29,2.57.09,3.21-.37.07-.05.13-.1.19-.15-.38.12-.79.15-1.14.15-.3,0-.62-.02-.93-.07-.49-.07-.96-.2-1.36-.36-.6-.24-1.16-.62-1.63-1.11-.76-.56-1.59-1.5-2.08-3.09-.49-1.72-.39-3.94.39-6.16.35-1.12,1.08-2.27,2.13-3.05.24-.19.49-.36.76-.52-2.5.9-4.95,2.79-5.9,6.08-.08.28-.15.57-.19.87-.16,1-.2,2.05.1,3.03.36,1.16,1.14,2.09,2.02,2.77Z"/><path class="cls-1" d="m2.91,29.46s-.06.07-.08.1c-.18.21-.32.45-.51.66.95-.08,2.62-.62,3.47-1.91.34-2.68,2.08-3.56,2.08-3.56-.88.81-1.32,1.73-1.52,2.63,0-.01.02-.03.02-.04-.19.91-.09,1.79.16,2.67.1.61.28,1.23.54,1.82.29.68.81,3.68.85,4.38-.3.48-1.27,2.27-1.59,2.74-.31.46-1.1,1.72-1.03,2.16.05.28,1.15,1.86,1.61,1.97.44.52,1.1,1.39,2.16,2.65.23.32.18,1.68-.18,2.02.09-.06.19-.06.29-.08-.3.51-.76.94-1,1.5.34-.63,1.38-.12,1.88-.18.04,0,.07-.02.11-.03.22.17.49.28.74.24.02.06.04.13.05.19.06.33-.16.6-.14.91.03.35.18.46.39.47-.28.68-.34,1.38-.16,1.7.35.64,1.35,1.01,2.18,1.04,0-.06,0-.13,0-.19.01.06.01.12,0,.19.36.01.69-.04.91-.16-.19-1.89-1.22-3.18-1.23-3.35.03.16,1.1,1.22,1.41,2.99.13,0,.19.01.37-.06-.25-1.02-.72-2.07-1.33-2.89.39-.06.3-.23.13-.41-.08-.09-.19-.18-.26-.27-.23-.26-.34-.56-.42-.87-.04-.14-.08-.29-.11-.43.15-.25.24-.53.22-.74,0-.08-.02-.16-.05-.23-.26-.9-1.5-1.53-2.36-2.35-.55-.53-1.16-1.58-1.37-2.33-.13-.62.34-1.26.33-1.85.44-.41,1.29-1.07,1.67-1.54.74-.52,1.88-1.37,2.66-2.21,1.18-1.65,1.57-2.66,1.82-3.52.07-.55.25-1.86-.22-2.75-.76-1.58-.46-2.93-.44-2.91-.03-.01.16,1.39.87,2.86.49.98.12,2.36-.08,3.36-.23,1.16-.65,2.42-1.49,3.28-.79.81-1.88,1.37-2.49,2.35-.3.47-1.09.67-1.23,1.08-.23.45.07,1.26.18,1.64.14.09.41.3.59.33.45.42,2.84,4.12,2.56,4.46.08-.06.16-.07.25-.11-.21.49-.58.92-.73,1.45.24-.61,1.22-.26,1.67-.37.04,0,.06-.03.1-.04.21.13.47.2.68.13.03.06.06.11.07.17.09.29-.08.56-.02.84.06.31.21.4.4.38-.17.64-.15,1.27.04,1.54.39.54,1.33.75,2.07.69,0-.07-.02-.13-.03-.19.03.06.04.13.03.19.35-.03.66-.12.84-.27-.02-.04-.02-.09-.02-.14,0-.05,0-.11,0-.16-.24-1.68-1.53-2.6-1.48-2.56-.07-.04,1.4.71,1.71,2.53.06-.01.11-.03.2-.08-.06-.86-.64-1.94-1.48-2.46.3-.1.2-.23.04-.37-.09-.07-.19-.14-.26-.21-.23-.21-.36-.46-.47-.73-.04-.1-.08-.2-.12-.29.13-.25.1-.62.05-.88-.34-.78-1.55-1.31-2.4-1.95-.55-.41-1.21-1.25-1.47-1.9,0-.02-.02-.05-.03-.07-.18-.54.08-.99,0-1.53-.14-.95,2.08-2.19,2.68-2.66.26-.21,2.45-2.14,2.12-2.28-.79-.33-1.07-1.14-1.67-1.15.79-.06,1.31.6,2.35.95.6.12,5.77-.08,6.43.05,2.81.55,5.64-.29,7.65-2.19.31.12.65.18,1.02.17,2.94-.07,4.38-3.59,6.52-2.88l.2.27c.04-.1.09-.22.13-.37.12-.46.14-.96.16-1.48.01-.34.03-.69.07-1.03-.2.05-.38.11-.53.19-.52.08-.99.18-1.48.29-.39.72-.8,1.55-1.34,2.38-.53.96-1.47,1.43-2.35,1.52,0,0,0,.01,0,.02-.15.4-2.44.98-4.69-.29-.03-.02-.06-.05-.09-.07-.19.43-1,1.88-3.6,2.29,0,0,1.88-.59,2.52-1.29.61-.66.69-1.27.7-1.33-.82-.81-1.2-1.87-2.02-1.93-.87-.1-1.44.01-1.44-.01,0,.02.54-.16,1.46-.12,1.09.06,1.54,1.53,2.63,2.25,2.03,1.16,4.37.88,4.53.51,0,0,0-.01,0-.02-.62.06-1.2-.06-1.59-.33-.99-.53-1.15-1.3-1.19-1.35.04.05.28.79,1.25,1.23.95.57,2.8.3,3.65-1.22.93-1.42,1.56-2.88,2.35-3.72.77-.9,1.19-.28,1.51-.2l.06.43c-.09.24-.19.49-.19.75,0,.36.1.74.09,1.08-.02.51-.04,1.05-.17,1.55-.15.56-.39.75-.65.86-.15.12-.31.19-.49.27-.86.02-.82.45-.96,1.07-.02.09-.03.28-.04.37,0,.1.02.26.03.37,0,.1-.08.18-.27.26-.43.16-.81-.91-1.27-.1-.37,0-1.03.16-1.72,1.14,0,0-.41.51-.39,1.33.12.34.31.71.59,1.07,1.38-.35,2.26-1.11,2.45-1.37-.3-.28-.44-.6-.39-.52-.02-.11.6,1.03,1.71.62.02-.01.03-.02.05-.04.39-.41.51-.77,1.13-.86.33.06.66.02.91-.2.26-.38.24-.55.19-.98-.04-.35-.1-.84.14-1.69.01-.07.04-.21.08-.39.31-1.44.63-2.61.89-3.52.21-1.14.41-2.33.34-2.61.08-.46.06-1.18-.1-1.49-.41-.73-1.13-.84-1.8-.56-.43.18-.78.44-1.08.79-.11-.12-1.25,1.47-3.64,2.71-2.16.35-3.58,1.5-4,1.95.14-.19.43-.57.82-.91.35-.33.87-.56,1.46-.77-.1-.38-1.54-1.43-3.4-2.04-1.07-.39-2.15-.57-2.84-.29-.7.28-.78.87-.81.83.04.04.03-.57.76-.96.73-.37,1.88-.24,2.98.16,1.91.63,3.27,1.87,3.33,2.3.5-.17,1.06-.33,1.6-.52.01,0,.02-.01.04-.02.15-.47.3-2.76-1.28-4.93-.81-1.21-1.92-2.11-2.89-2.16-.96-.07-1.48.39-1.49.34.01.06.47-.48,1.5-.48,1.04-.01,2.27.89,3.1,2.15,1.61,2.24,1.27,4.57,1.07,5.08.34-.18.66-.36.96-.55.11-2,.08-2.94-1.17-4.61-.36-.72-.97-2.92.8-4.02-.8.51-1.74.82-2.79.82-.81,0-1.62-.16-2.38-.46-1.69-.67-3.17-1.79-4.29-3.21-.1-.13-.2-.26-.3-.4-.41.96-1.25,1.7-1.31,2.93-1.02.39-3.43,1.59-3.97,2.62-.83,1.59-5.74,1.99-7.02,1.74-1.51-.22-4.07.37-4.98.83-.38.19-.77.46-1.17.77-1.66.16-3.24.88-4.38,2.3-1.42,1.76-2.46,3.54-4.9,3.57.74.43,2.1.63,2.91.32Z"/><path class="cls-1" d="m36.43,10.18c-.55-.19-1.31-.47-2.64-.81-.97-.42-1.48-1.1-1.75-1.66-.65.64-1.21,1.34-1.7,2.03,0,.63.14,1.29.4,1.91.51,1.22,1.43,2.17,2.52,2.61.37.15.8.26,1.25.33.38.06.76.08,1.09.06-.17-.02-.35-.07-.51-.13-.47-.19-.84-.57-1.05-1.07-.24-.55-.25-1.19-.04-1.71.39-.95,1.34-1.56,2.43-1.56Z"/><path class="cls-1" d="m39.31,36.21c-.33-.04-.59-.19-.78-.37-.15.26-.83,1.01-1.99,1.44.05.13.12.27.21.36.21.2,1.69-.23,2.56-1.43Z"/><path class="cls-1" d="m43.6,30.31c.28-.37.04-.78.02-1.13-.01-.32-.11-.58-.27-.78-.17.9-.4,2.04-.71,3.44l-.09.4c-.23.8-.18,1.25-.14,1.57.04.32.07.58-.19.91.02.07-.12.13-.24.18.02.31,0,.66-.18.93-.21.32-.63.41-.82.74-.17.3-.11.76-.05,1.08.04.21.12.43.24.64,0,.08-.04.16-.16.27-.01.01-.03.02-.04.04-.35.3-1.05-.6-1.2.32-.35.12-.91.5-1.23,1.66,0,0-.21.62.08,1.38.23.28.53.55.91.79,1.32-1,2.1-2.03,2.08-2.08-.59-.26-.91-.78-.82-.73-.05-.03.53.74,1.49.67,0,0,0-.02,0-.02.17-.06.31-.18.39-.36.23-.51.21-.89.76-1.19.34-.06.64-.21.8-.51.05-.1.08-.18.11-.26.24-.71-.44-.75-.55-2.37-.08-.53-.28-5.52-.23-5.59Z"/><path class="cls-1" d="m42.12,41.66c.09.11.21.23.34.29.26.11,1.46-.75,1.89-2.13-.23,0-.43-.06-.61-.13.03.03-.51,1.01-1.61,1.98Z"/><path class="cls-1" d="m33.06,15.83c-1.41-.27-3.13-.7-4.71-1.88-.23-.17-.88-.97-1.08-1.17.22.37.57,1.26.84,1.6,1.07,1.36,2.26,2.51,3.86,3.15.71.28,1.86.65,2.61.65,2.11,0,4.05-1.39,4.78-3.17.43-1.05.19-2.27-.62-3.18-.38-.42-.86-.76-1.4-.98-.29-.12-.6-.18-.9-.18-.88,0-1.65.49-1.96,1.24-.16.39-.15.89.04,1.32.16.38.43.66.77.79.37.15.82.03.9-.12-.19-.02-.47-.15-.61-.33-.06-.07-.12-.19-.09-.38.08-.65.55-.95,1.2-.69.21.08.6.31.73.62.15.34.14.8-.02,1.18-.05.12-.37.51-.94.96-.65.51-1.96.77-3.39.55Z"/><path class="cls-1" d="m35.99,14.58c.52.02,1.02-.12,1.16-.45.11-.26.1-.81-.02-1.02-.26-.45-.89-.41-1.2-.31-.28.09-.3.52,0,.72.18.11.55-.16.67.06.12.23-.05.46-.18.62-.16.2-.37.31-.44.37Z"/><path class="cls-1" d="m42.73,9.84c-.74,0-1.67-.62-2.07-1.4-.01-.01-.06.05-.15,0-.23-.12-.71-.23-1.02-.23-.19.07-.52.07-.7.08-.06-.19-.23-.59-.51-.78-.59-.42-1.63-.48-2.73-.47-1.81.32-2.74-.44-3.35-.81-.26-.15-.38-.21-.52.16-.04.12.02.26.05.39,0,0,0,.01,0,.02,0,0,0,.02.01.04,0-.02,0-.04-.01-.05,0,.01.03.06.06.14.1.17.34.44.84.52.7.2,1.76-.19,2.94.08,1.27.17,1.82,1.33,2.48,1.57.74.38.77-.48.78-.47,0,.13,0,.89-.83.6-.79-.25-1.33-1.31-2.48-1.43-1.09-.26-2.16.05-2.92-.22-.38-.11-.6-.3-.72-.47.23.51.81,1.5,2.02,2,1.39.36,2.84.77,3.29,1.02.61.24,1.51.89,1.94,1.37.94,1.06,1.02,2.28.52,3.51-.38.93-.98,1.74-1.76,2.35.19.16.39.31.58.4.04.08.13.22.21.35,0,0,0,.01.01.02.04.07.08.13.11.17.22.3.51.58.81.76.1.06.16.14.21.24.17.4.14,1.06,1.06,1.54.83.43.96.32,1.27.22-.6.1-1.01-.77-1.13-1.44-.18-.95-.3-1.31-1-1.27-.23.01-.34-.36-.15-.48.19-.12.76.34.86.44.95,1.01.55,1.14.78,2,.1.39.56.49.82.65.17.11.61.31.9,0,.16.03,1.35-.08,1.35-.74.32-.34.39-1.07.39-1.72,0-.7-.11-1.32-.11-1.32,0,0-.07-.31-.15-1.47-.05-.72-.1-1.76-.14-3.25-.03-1.32-.35-2.42-.74-3.31-.19.38-.62.64-1.07.69Zm-.65,1.8c-.08.23-.19.46-.24.55-.13.34-.46.53-.92.27-.41-.24-.62-.36-.94-.66.54-.11,2.21-.71,1.86.39.14-.31.47-1.33-.69-1.27-1.02.25-1.84.85-1.88.66.09.17.72-.5,1.88-.8.6-.12,1.18.46.94.86Zm-.62-2.07c.08.03.8.19,1.42.83.76.74.31,1.61.3,1.55.02.01.25-.78-.43-1.42-.58-.61-1.25-.91-1.29-.95Zm1.3,9.36c-.44-.98.22-1.03.54-1.03,0,0-.41.05-.49.41-.08.35.05.54.38.73.33.19.33.43.33.43-.08-.22-.49.06-.76-.54Zm1.4-.14c.08.2.13.42.17.64.04.23.03.54.16.73-.17-.12-.34-.28-.42-.48-.1-.25-.14-.53-.24-.79-.21.06-.51-.5-.17-.58.24-.06.44.31.5.48Zm-.38-1.98c-.73-.85-.11-1.4-.52-2.67-.41-1.27-.65-1.34-.63-1.87.05.57.5.58.89,1.79.4,1.25-.19,2.04.26,2.75Z"/></svg>